<svg xmlns="http://www.w3.org/2000/svg" width="28" height="28" viewBox="0 0 28 28">
    <g fill="none" fill-rule="evenodd">
        <rect width="27.637" height="27.637" x=".124" fill="#76CCD5" rx="13.819"/>
        <path fill="#FFF" d="M11.139 12.908v1.825s1.871-.004 2.636-.004c-.414 1.181-1.055 1.825-2.636 1.825-1.6 0-2.847-1.224-2.847-2.735 0-1.512 1.25-2.736 2.847-2.736.847 0 1.393.281 1.894.673.403-.381.369-.434 1.39-1.345a5.028 5.028 0 0 0-3.28-1.199c-2.693 0-4.878 2.063-4.878 4.607 0 2.543 2.185 4.606 4.877 4.606 4.026 0 5.01-3.312 4.682-5.517h-4.685zm8.799.289v-1.682H18.74v1.682h-1.727v1.198h1.727v1.727h1.198v-1.727h1.681v-1.198h-1.681z"/>
    </g>
</svg>
