<svg xmlns="http://www.w3.org/2000/svg" width="29" height="28" viewBox="0 0 29 28">
    <g fill="none" fill-rule="evenodd">
        <rect width="27.637" height="27.637" x=".832" fill="#76CCD5" rx="13.819"/>
        <path fill="#FFF" d="M20.47 9.794c.151.389.255.835.284 1.49.033.655.038.864.038 2.535 0 1.67-.01 1.88-.038 2.534-.029.65-.133 1.101-.285 1.49a3.002 3.002 0 0 1-.707 1.087c-.342.342-.683.55-1.087.707-.39.152-.835.257-1.49.285-.655.033-.864.038-2.535.038-1.67 0-1.88-.01-2.534-.038-.65-.028-1.101-.133-1.49-.285a3.002 3.002 0 0 1-1.087-.707 3.002 3.002 0 0 1-.708-1.087c-.151-.389-.256-.835-.284-1.49-.034-.655-.038-.864-.038-2.534 0-1.671.01-1.88.038-2.535.028-.65.133-1.101.284-1.49.157-.404.366-.745.708-1.087.341-.342.683-.55 1.087-.707.389-.152.835-.257 1.49-.285.655-.033.864-.038 2.534-.038 1.671 0 1.88.01 2.535.038.65.028 1.1.133 1.49.285.404.156.745.365 1.087.707.342.342.55.683.707 1.087zm-1.248 6.293c.026-.59.035-.772.035-2.268 0-1.497-.01-1.675-.035-2.269-.026-.546-.117-.841-.195-1.04a1.757 1.757 0 0 0-.421-.647 1.738 1.738 0 0 0-.646-.42c-.195-.079-.495-.17-1.041-.196-.59-.03-.772-.035-2.269-.035-1.496 0-1.674.01-2.268.035-.547.026-.841.117-1.041.195a1.757 1.757 0 0 0-.646.421 1.738 1.738 0 0 0-.421.646c-.078.195-.17.495-.195 1.041-.03.59-.035.772-.035 2.269 0 1.496.009 1.674.035 2.268.026.546.117.841.195 1.04.104.265.226.452.42.647.196.195.387.321.647.42.195.079.494.17 1.04.196.59.03.769.035 2.27.035 1.5 0 1.674-.009 2.268-.035.546-.026.841-.117 1.04-.195.265-.104.452-.226.647-.42.195-.196.32-.387.42-.647.079-.195.17-.495.196-1.041zm-1.5-4.572a.768.768 0 1 1 0-1.535.768.768 0 0 1 0 1.535zm-3.072-.767a3.072 3.072 0 0 1 3.071 3.07 3.072 3.072 0 0 1-3.07 3.071 3.072 3.072 0 0 1-3.071-3.07 3.072 3.072 0 0 1 3.07-3.071zm0 4.606c.846 0 1.536-.69 1.536-1.535a1.536 1.536 0 1 0-1.535 1.535z"/>
    </g>
</svg>
