<svg xmlns="http://www.w3.org/2000/svg" width="28" height="28" viewBox="0 0 28 28">
    <g fill="none" fill-rule="evenodd">
        <rect width="27.637" height="27.637" fill="#76CCD5" rx="13.819"/>
        <path fill="#FFF" d="M8.619 12.013h2.229v7.18h-2.23v-7.18zm1.118-3.568a1.295 1.295 0 0 1 0 2.59 1.293 1.293 0 0 1-1.292-1.296c0-.713.576-1.294 1.292-1.294zm2.511 3.568h2.134v.984h.03c.297-.564 1.022-1.158 2.108-1.158 2.254 0 2.672 1.486 2.672 3.42v3.933h-2.225v-3.49c0-.834-.012-1.904-1.155-1.904-1.16 0-1.335.909-1.335 1.842v3.552h-2.225v-7.179h-.004z"/>
    </g>
</svg>
